<svg xmlns="http://www.w3.org/2000/svg" width="1024" height="1024" viewBox="0 0 1024 1024">
  <!-- Mding app icon · R1 "포켓 페이지" · master 1024
       grid: Apple macOS icon grid — 824×824 squircle centered, corner radius 185 (22.5%) -->
  <defs>
    <linearGradient id="shine" x1="0" y1="0" x2="0" y2="1">
      <stop offset="0" stop-color="#ffffff" stop-opacity="0.22"/>
      <stop offset="0.55" stop-color="#ffffff" stop-opacity="0"/>
    </linearGradient>
    <filter id="ds" x="-15%" y="-15%" width="130%" height="130%">
      <feDropShadow dx="0" dy="10" stdDeviation="12" flood-color="#000000" flood-opacity="0.3"/>
    </filter>
  </defs>

  <g filter="url(#ds)">
    <!-- design space: 512 grid (content 34..478) mapped onto the 824 squircle -->
    <g transform="translate(100,100) scale(1.855856) translate(-34,-34)">
      <rect x="34" y="34" width="444" height="444" rx="100" fill="#8ca2f0"/>
      <rect x="34" y="34" width="444" height="444" rx="100" fill="url(#shine)"/>
      <g transform="rotate(-6 256 256)">
        <path d="M 196 122 H 286 L 366 202 V 342 Q 366 390 318 390 H 194 Q 146 390 146 342 V 170 Q 146 122 196 122 Z"
              fill="#fffefb" stroke="#2a2e4f" stroke-width="22" stroke-linejoin="round"/>
        <path d="M 286 122 V 158 Q 286 202 330 202 H 366 Z"
              fill="#c9d4fb" stroke="#2a2e4f" stroke-width="22" stroke-linejoin="round"/>
        <circle cx="216" cy="246" r="13" fill="#2a2e4f"/>
        <circle cx="296" cy="246" r="13" fill="#2a2e4f"/>
        <path d="M 232 276 Q 256 296 280 276" fill="none" stroke="#2a2e4f" stroke-width="13" stroke-linecap="round"/>
        <ellipse cx="192" cy="278" rx="16" ry="9" fill="#ffb3c1"/>
        <ellipse cx="320" cy="278" rx="16" ry="9" fill="#ffb3c1"/>
        <rect x="200" y="326" width="112" height="13" ry="6.5" fill="#d3dcf9"/>
        <rect x="200" y="350" width="72" height="13" ry="6.5" fill="#d3dcf9"/>
      </g>
    </g>
  </g>
</svg>
